<?xml version="1.0" standalone="no"?>
<!DOCTYPE svg PUBLIC "-//W3C//DTD SVG 20010904//EN"
 "http://www.w3.org/TR/2001/REC-SVG-20010904/DTD/svg10.dtd">
<svg version="1.0" xmlns="http://www.w3.org/2000/svg"
 width="32.000000pt" height="32.000000pt" viewBox="0 0 32.000000 32.000000"
 preserveAspectRatio="xMidYMid meet">

<g transform="translate(0.000000,32.000000) scale(0.100000,-0.100000)"
fill="#000000" stroke="none">
<path d="M70 252 c0 -4 42 -49 93 -100 78 -78 97 -92 125 -92 l32 0 0 63 c0
60 -2 65 -38 100 -38 37 -38 37 -125 37 -48 0 -87 -3 -87 -8z"/>
<path d="M33 213 c-8 -21 -19 -46 -24 -55 -7 -13 -2 -25 21 -50 l29 -33 1 88
c0 48 -2 87 -6 87 -3 0 -12 -17 -21 -37z"/>
</g>
</svg>
